PathFileType	4	(X/Y/Z)	Patient4_TMGait_0pt5_01_right_28.trc.trc
DataRate	CameraRate	NumFrames	NumMarkers	Units	OrigDataRate	OrigDataStartFrame	OrigNumFrames
76.086956521739	76.086956521739	6	33	mm	76.086956521739	89	       141
Frame#	Time	L.ASIS			Sacral			L.Shoulder			Chest			R.Shoulder			Neck			R.ASIS			R.Thigh.Superior			R.Thigh.Lateral			R.Thigh.Inferior			R.Patella			L.Thigh.Superior			L.Thigh.Lateral			L.Thigh.Inferior			L.Patella			L.Shank.Superior			L.Shank.Lateral			L.Shank.Inferior			R.Shank.Superior			R.Shank.Lateral			R.Shank.Inferior			R.Heel			R.Midfoot.Superior			R.Midfoot.Lateral			R.Toe			L.Heel			L.Midfoot.Lateral			L.Midfoot.Superior			L.Toe			L.Elbow			L.Wrist			R.Elbow			R.Wrist			
		X1	Y1	Z1	X2	Y2	Z2	X3	Y3	Z3	X4	Y4	Z4	X5	Y5	Z5	X6	Y6	Z6	X7	Y7	Z7	X8	Y8	Z8	X9	Y9	Z9	X10	Y10	Z10	X11	Y11	Z11	X12	Y12	Z12	X13	Y13	Z13	X14	Y14	Z14	X15	Y15	Z15	X16	Y16	Z16	X17	Y17	Z17	X18	Y18	Z18	X19	Y19	Z19	X20	Y20	Z20	X21	Y21	Z21	X22	Y22	Z22	X23	Y23	Z23	X24	Y24	Z24	X25	Y25	Z25	X26	Y26	Z26	X27	Y27	Z27	X28	Y28	Z28	X29	Y29	Z29	X30	Y30	Z30	X31	Y31	Z31	X32	Y32	Z32	X33	Y33	Z33	

89	37.906571428571	884.007574760958	963.887154734112	303.921612287418	693.463543515001	1009.148555244755	489.399079628051	833.479192256394	1435.063592083528	289.686810582925	963.256603325515	1365.555326916808	430.875441840459	908.322550824215	1440.979028716180	616.825709803162	860.859219954665	1496.285113320444	436.565603124204	931.582735121584	936.634441498717	574.191866293107	941.636690504268	726.880637657919	549.963041819061	850.496954383865	627.692627480807	618.114933148902	915.231815049890	562.091604697913	537.426298775468	898.424667089745	460.168791577285	551.762497278594	954.069623243852	764.773920934085	335.948011497688	877.308011468508	639.295203268191	280.939231167578	971.937082787923	569.195354580616	340.006961554593	980.715938883518	496.885499448783	350.150384720209	953.655728992484	423.550410527082	342.574150438345	866.818063815831	310.005745806681	287.231712834714	915.763278244341	197.550183401214	356.925846211139	831.626819297651	389.137875335133	560.683763828252	725.197640636748	327.387781254749	627.738504294369	721.978188185424	220.865702789293	570.984300753734	529.013556275416	112.762124183054	553.792465521554	710.292079350297	106.393216857531	579.850777363042	608.155378438344	71.582024067825	620.242177705788	805.506508198730	35.914544874829	595.540997307196	784.851788421598	41.226953193664	390.112529968691	861.383761549393	37.631597671056	312.537293556151	944.763793039945	97.433734907294	341.238185121695	1072.910310896734	41.401841052261	316.161259126029	741.746779603571	1090.639072482557	181.771119278196	833.775563842923	846.032736754658	147.830555081508	940.834387967683	1092.049190666209	724.971153623791	1126.074486403023	937.768803183221	634.191235914293	
90	37.919714285714	884.124930538539	964.441009972642	300.900375021068	693.103277103597	1009.413779370230	486.292239916985	833.751142241866	1436.185705253375	288.141294527312	963.216197994600	1366.215465503793	429.402467090205	907.648462333132	1440.806103321837	615.522298123260	860.685989325701	1496.779535201583	435.309100962979	931.478021434768	936.970488173127	570.908801539353	945.162417896275	727.960284302089	547.036636804607	856.466710117266	627.505676445511	615.747157362402	922.700860366532	562.533353195561	535.214836233721	907.094561351777	459.219618854199	550.898074646444	953.107758945833	764.012994849040	332.705639876565	874.876581904327	639.062948421086	278.743035786833	968.759448555349	568.332809544116	337.945636212046	976.868133723676	496.118859057805	348.489174492183	949.388662541256	422.793380860335	341.129076672795	861.877573232137	309.585230746394	286.193763966133	910.021316729694	197.146195436953	356.386072197869	838.168984071755	389.195459327478	560.044180617296	729.682137625590	330.962675029669	626.881161261609	723.903090874326	224.050402178023	571.370568295140	528.040602483049	123.324277338659	554.656985378449	708.361349397465	107.866930721407	580.516483976073	604.877087040052	77.902780047003	620.663069389144	799.119295822607	35.412416109272	595.493140967038	778.145488380497	41.177416246207	389.976419027647	854.686761337924	37.503003248262	312.406795031986	938.118103207119	97.301518414249	341.112787058330	1066.271971839605	41.135922029894	316.116292283553	742.097924361855	1092.429169701895	178.245858807999	838.875803907751	849.560002907244	144.159570789853	933.495558135410	1091.343606813591	724.136142359683	1112.261247742939	924.141055424874	642.159027824099	
91	37.932857142857	884.191385778277	964.850923065530	297.961496988332	692.588961228563	1009.565811894096	483.213186313982	834.016582884139	1437.191897874842	286.643081708373	963.086298150577	1366.732940489561	428.031005218801	906.791851163982	1440.453448680892	614.306277383148	860.418059714799	1497.137574097471	434.121507887947	931.215234382120	937.255735340547	567.718192132968	949.001081095996	729.163782518373	543.983599617585	863.211638208832	627.286081923203	613.359084065202	930.920205889035	563.153877119429	532.812726785867	916.738182884556	458.466602032408	549.760402793960	951.988674015162	763.120913411837	329.721711407565	872.382305415214	638.797656931204	276.534662107927	965.381746495079	567.399693892305	336.036653862991	972.767305622203	495.264712711831	346.893930711850	944.914084713722	421.961247304220	339.681514205747	856.775724772383	309.063509101966	285.139305243298	904.157982028601	196.668774736929	355.834617884569	845.745593335724	389.399891891641	559.203445513269	735.335315982583	334.847777969973	625.947287771117	726.780418850698	227.679565684327	571.651808346704	528.284867638351	135.200502985676	555.543558826971	706.992163804669	109.787879121412	581.093242433790	602.377612109867	85.368779918850	621.131724471202	792.714535115900	34.680633398433	595.487321564357	771.421844836631	41.021331838366	389.816796705314	847.975264836185	37.313095371523	312.236923410915	931.419236114980	97.153432174963	340.978355596086	1059.617361117734	40.957099661238	316.073395435379	742.433247452629	1094.181716647526	174.620589514148	843.978898168566	853.170218809497	140.463378652221	925.832885733170	1090.602054036518	723.387885678579	1097.407410727555	911.091459175824	650.848212042569	
92	37.946000000000	884.206916359889	965.108611318959	295.147687930361	691.939435829232	1009.580662031269	480.187631939470	834.291356436610	1438.054072324652	285.191854534740	962.872329992241	1367.083197483015	426.772811104135	905.754388771341	1439.926373284745	613.175837107398	860.078077834458	1497.348057895689	432.993738937448	930.781570431438	937.472238879739	564.693592536605	953.090259888770	730.529102908912	540.836150663924	870.653387639419	627.101242031870	610.970513110368	939.797008482728	564.024285929781	530.240672684459	927.271708032037	457.992307723375	548.321858287698	950.719393916857	762.108331570979	326.995441082311	869.799173671211	638.494126802225	274.343264831680	961.818990897744	566.394619311339	334.252380324308	968.439843918360	494.331386411196	345.371449198169	940.259163720137	421.065943210308	338.248672023576	851.540563493485	308.456139488706	284.080816874248	898.184162584741	196.127996233810	355.288069157870	854.283183746436	389.813655917881	558.117001161083	742.115685697235	339.064144659506	624.914496176380	730.599732033179	231.787991363639	571.778215140001	529.839363940942	148.335306416621	556.381279430531	706.232886033222	112.273865948804	581.539949837908	600.764644980574	94.024084021919	621.609113061251	786.357592771647	33.713313370074	595.528699231126	764.693906065968	40.773342164383	389.644427344759	841.258540009106	37.075086913210	312.034781111932	924.680056035419	96.995703950917	340.839398321096	1052.955899700884	40.861028985098	316.026351033451	742.799517508853	1095.860784571600	170.892444938269	849.087222282130	856.814456069891	136.765200924520	917.874084982364	1089.852925030494	722.770812656388	1081.560274080458	898.816582603778	660.110824779766	
93	37.959142857143	884.170564840642	965.215165073079	292.500543883345	691.179337654642	1009.440212719520	477.242124693263	834.592166535117	1438.750645594359	283.788164649015	962.581300233524	1367.253612496596	425.642512913306	904.536149215420	1439.243093489806	612.130467559943	859.690617810762	1497.409994143599	431.916326856689	930.170258514621	937.600523662455	561.903604558116	957.356909120343	732.096516593191	537.646543588873	878.666559052130	627.032340902127	608.606166141162	949.201717564970	565.220685868366	527.541357967421	938.565029481190	457.883621687422	546.580715719238	949.307493804303	760.987714286540	324.500773168453	867.105140657858	638.151262086412	272.191221033559	958.092343654716	565.323162109961	332.556353447212	963.919369643584	493.334112937481	343.913439754531	935.455063307537	420.124603585530	336.839268505393	846.199082596977	307.784053835354	283.028215454884	892.113906316982	195.539304533225	354.757618244300	863.664794471903	390.504279844478	556.761574279527	749.927437149129	343.619565675284	623.760889352460	735.319530889067	236.384550766906	571.703093984897	532.745364689838	162.553996917534	557.078662225079	706.145477109568	115.417712692172	581.821272523164	600.133153136705	103.814577674999	622.035010195799	780.171718986300	32.544523293693	595.615687069836	757.970144591495	40.457593584113	389.470315307243	834.542269999202	36.806006601269	311.809578958860	917.913763490081	96.833428747089	340.699754546438	1046.293412872598	40.833377152121	315.971389393834	743.239984174200	1097.433971430817	167.068331699086	854.201555871919	860.443849325756	133.091189087604	909.662989454461	1089.138448409878	722.324373928941	1064.802272820185	887.489879795713	669.786657742603	
94	37.972285714286	884.080093962673	965.184105702643	290.055653627230	690.332080495553	1009.140610389662	474.400928905188	834.936044687378	1439.271114094264	282.434294587664	962.222724156738	1367.245988637917	424.655880341560	903.139851446998	1438.435857110287	611.170471420909	859.281695770168	1497.334638899469	430.881027433920	929.378064817207	937.627261383317	559.400713101927	961.719325459430	733.906296112911	534.482846991086	887.086362843222	627.168298558182	606.295084704749	958.975757241988	566.819913529449	524.776132431838	950.450737368799	458.227515491620	544.565346848690	947.762808982545	759.778182680486	322.197871395435	864.288040700357	637.774240092564	270.096178490462	954.227819508359	564.199345423120	330.915215567018	959.244044090590	492.294518316979	342.506469241524	930.535090746781	419.159232264448	335.458798385250	840.777981752294	307.073309509057	281.989683222590	885.964862513418	194.922883272219	354.249791232572	873.739340385363	391.539081601105	555.141420556038	758.626339439664	348.503540374642	622.467281740562	740.875839199651	241.443988542712	571.387975878180	536.986211525007	177.550296657045	557.529418348267	706.814197137330	119.267267349154	581.912270182424	600.563820335461	114.568496344508	622.331021689193	774.356475719797	31.254466170000	595.738341973684	751.255591985424	40.104258901010	389.303717794415	827.830174072894	36.524967551678	311.571420740053	911.133864787501	96.671378613697	340.561893366875	1039.633305819589	40.854059262229	315.906890927652	743.793135697272	1098.877187996823	163.167310053444	859.317856821321	864.013473513608	129.470647557343	901.255971876175	1088.512230299119	722.077452897826	1047.249866869343	877.256948877218	679.710149407164	
